<mxfile host="Electron" modified="2023-07-27T09:51:28.975Z" agent="Mozilla/5.0 (X11; Linux x86_64) AppleWebKit/537.36 (KHTML, like Gecko) draw.io/21.6.5 Chrome/114.0.5735.243 Electron/25.3.1 Safari/537.36" etag="-BSTzfmPZ8qa_FPnvHaH" version="21.6.5" type="device">
  <diagram name="Page-1" id="DvzYVd7mPBaklJNEI5Y7">
    <mxGraphModel dx="1943" dy="1204" grid="1" gridSize="10" guides="1" tooltips="1" connect="1" arrows="1" fold="1" page="1" pageScale="1" pageWidth="850" pageHeight="1100" math="0" shadow="0">
      <root>
        <mxCell id="0" />
        <mxCell id="1" parent="0" />
        <mxCell id="RH2zlCwxWnrKG9xwv06w-13" value="" style="edgeStyle=orthogonalEdgeStyle;rounded=0;orthogonalLoop=1;jettySize=auto;html=1;fillColor=#76608a;strokeColor=#FFFFFF;" parent="1" source="RH2zlCwxWnrKG9xwv06w-8" target="RH2zlCwxWnrKG9xwv06w-9" edge="1">
          <mxGeometry relative="1" as="geometry" />
        </mxCell>
        <mxCell id="RH2zlCwxWnrKG9xwv06w-8" value="1" style="ellipse;whiteSpace=wrap;html=1;aspect=fixed;fillColor=#76608a;fontColor=#ffffff;strokeColor=#432D57;" parent="1" vertex="1">
          <mxGeometry x="120" y="280" width="40" height="40" as="geometry" />
        </mxCell>
        <mxCell id="RH2zlCwxWnrKG9xwv06w-14" value="" style="edgeStyle=orthogonalEdgeStyle;rounded=0;orthogonalLoop=1;jettySize=auto;html=1;fillColor=#76608a;strokeColor=#FFFFFF;" parent="1" source="RH2zlCwxWnrKG9xwv06w-9" target="RH2zlCwxWnrKG9xwv06w-10" edge="1">
          <mxGeometry relative="1" as="geometry" />
        </mxCell>
        <mxCell id="RH2zlCwxWnrKG9xwv06w-9" value="3" style="ellipse;whiteSpace=wrap;html=1;aspect=fixed;fillColor=#76608a;fontColor=#ffffff;strokeColor=#432D57;" parent="1" vertex="1">
          <mxGeometry x="200" y="280" width="40" height="40" as="geometry" />
        </mxCell>
        <mxCell id="RH2zlCwxWnrKG9xwv06w-10" value="5" style="ellipse;whiteSpace=wrap;html=1;aspect=fixed;fillColor=#76608a;fontColor=#ffffff;strokeColor=#432D57;" parent="1" vertex="1">
          <mxGeometry x="280" y="280" width="40" height="40" as="geometry" />
        </mxCell>
        <mxCell id="RH2zlCwxWnrKG9xwv06w-11" value="" style="rounded=0;whiteSpace=wrap;html=1;fillColor=#1ba1e2;strokeColor=#006EAF;fontColor=#ffffff;" parent="1" vertex="1">
          <mxGeometry x="50" y="210" width="20" height="20" as="geometry" />
        </mxCell>
        <mxCell id="RH2zlCwxWnrKG9xwv06w-39" value="" style="edgeStyle=orthogonalEdgeStyle;rounded=0;orthogonalLoop=1;jettySize=auto;html=1;fillColor=#e51400;strokeColor=#FFFFFF;" parent="1" source="RH2zlCwxWnrKG9xwv06w-40" target="RH2zlCwxWnrKG9xwv06w-42" edge="1">
          <mxGeometry relative="1" as="geometry" />
        </mxCell>
        <mxCell id="RH2zlCwxWnrKG9xwv06w-40" value="1" style="ellipse;whiteSpace=wrap;html=1;aspect=fixed;fillColor=#e51400;fontColor=#ffffff;strokeColor=#B20000;" parent="1" vertex="1">
          <mxGeometry x="120" y="120" width="40" height="40" as="geometry" />
        </mxCell>
        <mxCell id="RH2zlCwxWnrKG9xwv06w-41" value="" style="edgeStyle=orthogonalEdgeStyle;rounded=0;orthogonalLoop=1;jettySize=auto;html=1;fillColor=#e51400;strokeColor=#FFFFFF;" parent="1" source="RH2zlCwxWnrKG9xwv06w-42" target="RH2zlCwxWnrKG9xwv06w-43" edge="1">
          <mxGeometry relative="1" as="geometry" />
        </mxCell>
        <mxCell id="RH2zlCwxWnrKG9xwv06w-42" value="2" style="ellipse;whiteSpace=wrap;html=1;aspect=fixed;fillColor=#e51400;fontColor=#ffffff;strokeColor=#B20000;" parent="1" vertex="1">
          <mxGeometry x="200" y="120" width="40" height="40" as="geometry" />
        </mxCell>
        <mxCell id="RH2zlCwxWnrKG9xwv06w-45" value="" style="edgeStyle=orthogonalEdgeStyle;rounded=0;orthogonalLoop=1;jettySize=auto;html=1;fillColor=#e51400;strokeColor=#FFFFFF;" parent="1" source="RH2zlCwxWnrKG9xwv06w-43" target="RH2zlCwxWnrKG9xwv06w-44" edge="1">
          <mxGeometry relative="1" as="geometry" />
        </mxCell>
        <mxCell id="RH2zlCwxWnrKG9xwv06w-43" value="4" style="ellipse;whiteSpace=wrap;html=1;aspect=fixed;fillColor=#e51400;fontColor=#ffffff;strokeColor=#B20000;" parent="1" vertex="1">
          <mxGeometry x="280" y="120" width="40" height="40" as="geometry" />
        </mxCell>
        <mxCell id="i6Kg3G1_LgCS5JZqoiPE-211" value="" style="edgeStyle=orthogonalEdgeStyle;rounded=0;orthogonalLoop=1;jettySize=auto;html=1;" edge="1" parent="1" source="RH2zlCwxWnrKG9xwv06w-44" target="i6Kg3G1_LgCS5JZqoiPE-210">
          <mxGeometry relative="1" as="geometry" />
        </mxCell>
        <mxCell id="RH2zlCwxWnrKG9xwv06w-44" value="6" style="ellipse;whiteSpace=wrap;html=1;aspect=fixed;fillColor=#e51400;fontColor=#ffffff;strokeColor=#B20000;" parent="1" vertex="1">
          <mxGeometry x="360" y="120" width="40" height="40" as="geometry" />
        </mxCell>
        <mxCell id="i6Kg3G1_LgCS5JZqoiPE-1" value="Curr" style="text;html=1;strokeColor=none;fillColor=none;align=center;verticalAlign=middle;whiteSpace=wrap;rounded=0;fontColor=#00FF00;" vertex="1" parent="1">
          <mxGeometry x="30" y="230" width="60" height="30" as="geometry" />
        </mxCell>
        <mxCell id="i6Kg3G1_LgCS5JZqoiPE-2" value="L1" style="text;html=1;strokeColor=none;fillColor=none;align=center;verticalAlign=middle;whiteSpace=wrap;rounded=0;fontColor=#00FF00;" vertex="1" parent="1">
          <mxGeometry x="110" y="90" width="60" height="30" as="geometry" />
        </mxCell>
        <mxCell id="i6Kg3G1_LgCS5JZqoiPE-3" value="L2" style="text;html=1;strokeColor=none;fillColor=none;align=center;verticalAlign=middle;whiteSpace=wrap;rounded=0;fontColor=#00FF00;" vertex="1" parent="1">
          <mxGeometry x="110" y="320" width="60" height="30" as="geometry" />
        </mxCell>
        <mxCell id="i6Kg3G1_LgCS5JZqoiPE-5" value="Pre-condition" style="text;html=1;strokeColor=none;fillColor=none;align=center;verticalAlign=middle;whiteSpace=wrap;rounded=0;fontSize=24;" vertex="1" parent="1">
          <mxGeometry x="40" y="40" width="160" height="30" as="geometry" />
        </mxCell>
        <mxCell id="i6Kg3G1_LgCS5JZqoiPE-6" value="Iterations" style="text;html=1;strokeColor=none;fillColor=none;align=center;verticalAlign=middle;whiteSpace=wrap;rounded=0;fontSize=24;" vertex="1" parent="1">
          <mxGeometry x="50" y="400" width="160" height="30" as="geometry" />
        </mxCell>
        <mxCell id="i6Kg3G1_LgCS5JZqoiPE-7" value="" style="edgeStyle=orthogonalEdgeStyle;rounded=0;orthogonalLoop=1;jettySize=auto;html=1;fillColor=#76608a;strokeColor=#FFFFFF;" edge="1" parent="1" source="i6Kg3G1_LgCS5JZqoiPE-8" target="i6Kg3G1_LgCS5JZqoiPE-10">
          <mxGeometry relative="1" as="geometry" />
        </mxCell>
        <mxCell id="i6Kg3G1_LgCS5JZqoiPE-8" value="1" style="ellipse;whiteSpace=wrap;html=1;aspect=fixed;fillColor=#76608a;fontColor=#ffffff;strokeColor=#432D57;" vertex="1" parent="1">
          <mxGeometry x="120" y="640" width="40" height="40" as="geometry" />
        </mxCell>
        <mxCell id="i6Kg3G1_LgCS5JZqoiPE-9" value="" style="edgeStyle=orthogonalEdgeStyle;rounded=0;orthogonalLoop=1;jettySize=auto;html=1;fillColor=#76608a;strokeColor=#FFFFFF;" edge="1" parent="1" source="i6Kg3G1_LgCS5JZqoiPE-10" target="i6Kg3G1_LgCS5JZqoiPE-11">
          <mxGeometry relative="1" as="geometry" />
        </mxCell>
        <mxCell id="i6Kg3G1_LgCS5JZqoiPE-10" value="3" style="ellipse;whiteSpace=wrap;html=1;aspect=fixed;fillColor=#76608a;fontColor=#ffffff;strokeColor=#432D57;" vertex="1" parent="1">
          <mxGeometry x="200" y="640" width="40" height="40" as="geometry" />
        </mxCell>
        <mxCell id="i6Kg3G1_LgCS5JZqoiPE-11" value="5" style="ellipse;whiteSpace=wrap;html=1;aspect=fixed;fillColor=#76608a;fontColor=#ffffff;strokeColor=#432D57;" vertex="1" parent="1">
          <mxGeometry x="280" y="640" width="40" height="40" as="geometry" />
        </mxCell>
        <mxCell id="i6Kg3G1_LgCS5JZqoiPE-12" value="" style="rounded=0;whiteSpace=wrap;html=1;fillColor=#1ba1e2;strokeColor=#006EAF;fontColor=#ffffff;" vertex="1" parent="1">
          <mxGeometry x="50" y="570" width="20" height="20" as="geometry" />
        </mxCell>
        <mxCell id="i6Kg3G1_LgCS5JZqoiPE-14" value="1" style="ellipse;whiteSpace=wrap;html=1;aspect=fixed;fillColor=#e51400;fontColor=#ffffff;strokeColor=#B20000;" vertex="1" parent="1">
          <mxGeometry x="120" y="480" width="40" height="40" as="geometry" />
        </mxCell>
        <mxCell id="i6Kg3G1_LgCS5JZqoiPE-15" value="" style="edgeStyle=orthogonalEdgeStyle;rounded=0;orthogonalLoop=1;jettySize=auto;html=1;fillColor=#e51400;strokeColor=#FFFFFF;" edge="1" parent="1" source="i6Kg3G1_LgCS5JZqoiPE-16" target="i6Kg3G1_LgCS5JZqoiPE-18">
          <mxGeometry relative="1" as="geometry" />
        </mxCell>
        <mxCell id="i6Kg3G1_LgCS5JZqoiPE-16" value="2" style="ellipse;whiteSpace=wrap;html=1;aspect=fixed;fillColor=#e51400;fontColor=#ffffff;strokeColor=#B20000;" vertex="1" parent="1">
          <mxGeometry x="200" y="480" width="40" height="40" as="geometry" />
        </mxCell>
        <mxCell id="i6Kg3G1_LgCS5JZqoiPE-17" value="" style="edgeStyle=orthogonalEdgeStyle;rounded=0;orthogonalLoop=1;jettySize=auto;html=1;fillColor=#e51400;strokeColor=#FFFFFF;" edge="1" parent="1" source="i6Kg3G1_LgCS5JZqoiPE-18" target="i6Kg3G1_LgCS5JZqoiPE-19">
          <mxGeometry relative="1" as="geometry" />
        </mxCell>
        <mxCell id="i6Kg3G1_LgCS5JZqoiPE-18" value="4" style="ellipse;whiteSpace=wrap;html=1;aspect=fixed;fillColor=#e51400;fontColor=#ffffff;strokeColor=#B20000;" vertex="1" parent="1">
          <mxGeometry x="280" y="480" width="40" height="40" as="geometry" />
        </mxCell>
        <mxCell id="i6Kg3G1_LgCS5JZqoiPE-221" value="" style="edgeStyle=orthogonalEdgeStyle;rounded=0;orthogonalLoop=1;jettySize=auto;html=1;" edge="1" parent="1" source="i6Kg3G1_LgCS5JZqoiPE-19" target="i6Kg3G1_LgCS5JZqoiPE-220">
          <mxGeometry relative="1" as="geometry" />
        </mxCell>
        <mxCell id="i6Kg3G1_LgCS5JZqoiPE-19" value="6" style="ellipse;whiteSpace=wrap;html=1;aspect=fixed;fillColor=#e51400;fontColor=#ffffff;strokeColor=#B20000;" vertex="1" parent="1">
          <mxGeometry x="360" y="480" width="40" height="40" as="geometry" />
        </mxCell>
        <mxCell id="i6Kg3G1_LgCS5JZqoiPE-20" value="Curr" style="text;html=1;strokeColor=none;fillColor=none;align=center;verticalAlign=middle;whiteSpace=wrap;rounded=0;fontColor=#00FF00;" vertex="1" parent="1">
          <mxGeometry x="30" y="590" width="60" height="30" as="geometry" />
        </mxCell>
        <mxCell id="i6Kg3G1_LgCS5JZqoiPE-21" value="L1" style="text;html=1;strokeColor=none;fillColor=none;align=center;verticalAlign=middle;whiteSpace=wrap;rounded=0;fontColor=#7F00FF;" vertex="1" parent="1">
          <mxGeometry x="190" y="450" width="60" height="30" as="geometry" />
        </mxCell>
        <mxCell id="i6Kg3G1_LgCS5JZqoiPE-22" value="L2" style="text;html=1;strokeColor=none;fillColor=none;align=center;verticalAlign=middle;whiteSpace=wrap;rounded=0;fontColor=#00FF00;" vertex="1" parent="1">
          <mxGeometry x="110" y="680" width="60" height="30" as="geometry" />
        </mxCell>
        <mxCell id="i6Kg3G1_LgCS5JZqoiPE-23" value="" style="endArrow=classic;html=1;rounded=0;exitX=1;exitY=0.5;exitDx=0;exitDy=0;entryX=0;entryY=1;entryDx=0;entryDy=0;fontColor=#00FF00;fillColor=#1ba1e2;strokeColor=#006EAF;" edge="1" parent="1" source="i6Kg3G1_LgCS5JZqoiPE-12" target="i6Kg3G1_LgCS5JZqoiPE-14">
          <mxGeometry x="-0.0207" y="-3" width="50" height="50" relative="1" as="geometry">
            <mxPoint x="260" y="620" as="sourcePoint" />
            <mxPoint x="310" y="570" as="targetPoint" />
            <mxPoint as="offset" />
          </mxGeometry>
        </mxCell>
        <mxCell id="i6Kg3G1_LgCS5JZqoiPE-24" value="&lt;font color=&quot;#00ff00&quot;&gt;L1.VAL &amp;lt; L2.VAL&lt;/font&gt;" style="text;html=1;strokeColor=none;fillColor=none;align=center;verticalAlign=middle;whiteSpace=wrap;rounded=0;" vertex="1" parent="1">
          <mxGeometry x="160" y="560" width="110" height="30" as="geometry" />
        </mxCell>
        <mxCell id="i6Kg3G1_LgCS5JZqoiPE-25" value="L1" style="text;html=1;strokeColor=none;fillColor=none;align=center;verticalAlign=middle;whiteSpace=wrap;rounded=0;fontColor=#00FF00;" vertex="1" parent="1">
          <mxGeometry x="110" y="450" width="60" height="30" as="geometry" />
        </mxCell>
        <mxCell id="i6Kg3G1_LgCS5JZqoiPE-33" value="" style="endArrow=classic;html=1;rounded=0;exitX=1;exitY=0.5;exitDx=0;exitDy=0;fillColor=#6a00ff;strokeColor=#3700CC;" edge="1" parent="1" source="i6Kg3G1_LgCS5JZqoiPE-25" target="i6Kg3G1_LgCS5JZqoiPE-21">
          <mxGeometry width="50" height="50" relative="1" as="geometry">
            <mxPoint x="190" y="540" as="sourcePoint" />
            <mxPoint x="240" y="490" as="targetPoint" />
          </mxGeometry>
        </mxCell>
        <mxCell id="i6Kg3G1_LgCS5JZqoiPE-35" value="1" style="ellipse;whiteSpace=wrap;html=1;aspect=fixed;fillColor=#76608a;fontColor=#ffffff;strokeColor=#432D57;" vertex="1" parent="1">
          <mxGeometry x="120" y="920" width="40" height="40" as="geometry" />
        </mxCell>
        <mxCell id="i6Kg3G1_LgCS5JZqoiPE-36" value="" style="edgeStyle=orthogonalEdgeStyle;rounded=0;orthogonalLoop=1;jettySize=auto;html=1;fillColor=#76608a;strokeColor=#FFFFFF;" edge="1" parent="1" source="i6Kg3G1_LgCS5JZqoiPE-37" target="i6Kg3G1_LgCS5JZqoiPE-38">
          <mxGeometry relative="1" as="geometry" />
        </mxCell>
        <mxCell id="i6Kg3G1_LgCS5JZqoiPE-37" value="3" style="ellipse;whiteSpace=wrap;html=1;aspect=fixed;fillColor=#76608a;fontColor=#ffffff;strokeColor=#432D57;" vertex="1" parent="1">
          <mxGeometry x="200" y="920" width="40" height="40" as="geometry" />
        </mxCell>
        <mxCell id="i6Kg3G1_LgCS5JZqoiPE-38" value="5" style="ellipse;whiteSpace=wrap;html=1;aspect=fixed;fillColor=#76608a;fontColor=#ffffff;strokeColor=#432D57;" vertex="1" parent="1">
          <mxGeometry x="280" y="920" width="40" height="40" as="geometry" />
        </mxCell>
        <mxCell id="i6Kg3G1_LgCS5JZqoiPE-39" value="" style="rounded=0;whiteSpace=wrap;html=1;fillColor=#1ba1e2;strokeColor=#006EAF;fontColor=#ffffff;" vertex="1" parent="1">
          <mxGeometry x="50" y="850" width="20" height="20" as="geometry" />
        </mxCell>
        <mxCell id="i6Kg3G1_LgCS5JZqoiPE-41" value="1" style="ellipse;whiteSpace=wrap;html=1;aspect=fixed;fillColor=#e51400;fontColor=#ffffff;strokeColor=#B20000;" vertex="1" parent="1">
          <mxGeometry x="120" y="760" width="40" height="40" as="geometry" />
        </mxCell>
        <mxCell id="i6Kg3G1_LgCS5JZqoiPE-42" value="" style="edgeStyle=orthogonalEdgeStyle;rounded=0;orthogonalLoop=1;jettySize=auto;html=1;fillColor=#e51400;strokeColor=#FFFFFF;" edge="1" parent="1" source="i6Kg3G1_LgCS5JZqoiPE-43" target="i6Kg3G1_LgCS5JZqoiPE-45">
          <mxGeometry relative="1" as="geometry" />
        </mxCell>
        <mxCell id="i6Kg3G1_LgCS5JZqoiPE-43" value="2" style="ellipse;whiteSpace=wrap;html=1;aspect=fixed;fillColor=#e51400;fontColor=#ffffff;strokeColor=#B20000;" vertex="1" parent="1">
          <mxGeometry x="200" y="760" width="40" height="40" as="geometry" />
        </mxCell>
        <mxCell id="i6Kg3G1_LgCS5JZqoiPE-44" value="" style="edgeStyle=orthogonalEdgeStyle;rounded=0;orthogonalLoop=1;jettySize=auto;html=1;fillColor=#e51400;strokeColor=#FFFFFF;" edge="1" parent="1" source="i6Kg3G1_LgCS5JZqoiPE-45" target="i6Kg3G1_LgCS5JZqoiPE-46">
          <mxGeometry relative="1" as="geometry" />
        </mxCell>
        <mxCell id="i6Kg3G1_LgCS5JZqoiPE-45" value="4" style="ellipse;whiteSpace=wrap;html=1;aspect=fixed;fillColor=#e51400;fontColor=#ffffff;strokeColor=#B20000;" vertex="1" parent="1">
          <mxGeometry x="280" y="760" width="40" height="40" as="geometry" />
        </mxCell>
        <mxCell id="i6Kg3G1_LgCS5JZqoiPE-223" value="" style="edgeStyle=orthogonalEdgeStyle;rounded=0;orthogonalLoop=1;jettySize=auto;html=1;" edge="1" parent="1" source="i6Kg3G1_LgCS5JZqoiPE-46" target="i6Kg3G1_LgCS5JZqoiPE-222">
          <mxGeometry relative="1" as="geometry" />
        </mxCell>
        <mxCell id="i6Kg3G1_LgCS5JZqoiPE-46" value="6" style="ellipse;whiteSpace=wrap;html=1;aspect=fixed;fillColor=#e51400;fontColor=#ffffff;strokeColor=#B20000;" vertex="1" parent="1">
          <mxGeometry x="360" y="760" width="40" height="40" as="geometry" />
        </mxCell>
        <mxCell id="i6Kg3G1_LgCS5JZqoiPE-48" value="L1" style="text;html=1;strokeColor=none;fillColor=none;align=center;verticalAlign=middle;whiteSpace=wrap;rounded=0;fontColor=#00FF00;labelBackgroundColor=default;" vertex="1" parent="1">
          <mxGeometry x="190" y="730" width="60" height="30" as="geometry" />
        </mxCell>
        <mxCell id="i6Kg3G1_LgCS5JZqoiPE-49" value="L2" style="text;html=1;strokeColor=none;fillColor=none;align=center;verticalAlign=middle;whiteSpace=wrap;rounded=0;fontColor=#00FF00;" vertex="1" parent="1">
          <mxGeometry x="120" y="960" width="60" height="30" as="geometry" />
        </mxCell>
        <mxCell id="i6Kg3G1_LgCS5JZqoiPE-50" value="" style="endArrow=classic;html=1;rounded=0;exitX=1;exitY=0.5;exitDx=0;exitDy=0;entryX=0;entryY=1;entryDx=0;entryDy=0;fontColor=#00FF00;fillColor=#1ba1e2;strokeColor=#006EAF;" edge="1" parent="1" source="i6Kg3G1_LgCS5JZqoiPE-39" target="i6Kg3G1_LgCS5JZqoiPE-41">
          <mxGeometry x="-0.0207" y="-3" width="50" height="50" relative="1" as="geometry">
            <mxPoint x="260" y="900" as="sourcePoint" />
            <mxPoint x="310" y="850" as="targetPoint" />
            <mxPoint as="offset" />
          </mxGeometry>
        </mxCell>
        <mxCell id="i6Kg3G1_LgCS5JZqoiPE-51" value="&lt;font color=&quot;#00ff00&quot;&gt;L2.VAL &amp;lt;= L1.VAL&lt;/font&gt;" style="text;html=1;strokeColor=none;fillColor=none;align=center;verticalAlign=middle;whiteSpace=wrap;rounded=0;" vertex="1" parent="1">
          <mxGeometry x="160" y="840" width="110" height="30" as="geometry" />
        </mxCell>
        <mxCell id="i6Kg3G1_LgCS5JZqoiPE-54" value="" style="endArrow=classic;html=1;rounded=0;exitX=0.5;exitY=1;exitDx=0;exitDy=0;entryX=0.5;entryY=0;entryDx=0;entryDy=0;fontColor=#00FF00;fillColor=#1ba1e2;strokeColor=#006EAF;" edge="1" parent="1" source="i6Kg3G1_LgCS5JZqoiPE-41" target="i6Kg3G1_LgCS5JZqoiPE-35">
          <mxGeometry x="-0.0207" y="-3" width="50" height="50" relative="1" as="geometry">
            <mxPoint x="80" y="870" as="sourcePoint" />
            <mxPoint x="136" y="804" as="targetPoint" />
            <mxPoint as="offset" />
          </mxGeometry>
        </mxCell>
        <mxCell id="i6Kg3G1_LgCS5JZqoiPE-55" value="Curr" style="text;html=1;strokeColor=none;fillColor=none;align=center;verticalAlign=middle;whiteSpace=wrap;rounded=0;fontColor=#7F00FF;" vertex="1" parent="1">
          <mxGeometry x="110" y="520" width="60" height="30" as="geometry" />
        </mxCell>
        <mxCell id="i6Kg3G1_LgCS5JZqoiPE-56" value="Curr" style="text;html=1;strokeColor=none;fillColor=none;align=center;verticalAlign=middle;whiteSpace=wrap;rounded=0;fontColor=#00FF00;" vertex="1" parent="1">
          <mxGeometry x="80" y="960" width="60" height="30" as="geometry" />
        </mxCell>
        <mxCell id="i6Kg3G1_LgCS5JZqoiPE-57" value="L2" style="text;html=1;strokeColor=none;fillColor=none;align=center;verticalAlign=middle;whiteSpace=wrap;rounded=0;fontColor=#7F00FF;" vertex="1" parent="1">
          <mxGeometry x="190" y="960" width="60" height="30" as="geometry" />
        </mxCell>
        <mxCell id="i6Kg3G1_LgCS5JZqoiPE-58" value="" style="endArrow=classic;html=1;rounded=0;exitX=1;exitY=0.5;exitDx=0;exitDy=0;fillColor=#6a00ff;strokeColor=#3700CC;" edge="1" parent="1" target="i6Kg3G1_LgCS5JZqoiPE-57">
          <mxGeometry width="50" height="50" relative="1" as="geometry">
            <mxPoint x="170" y="975" as="sourcePoint" />
            <mxPoint x="240" y="1000" as="targetPoint" />
          </mxGeometry>
        </mxCell>
        <mxCell id="i6Kg3G1_LgCS5JZqoiPE-59" value="Curr" style="text;html=1;strokeColor=none;fillColor=none;align=center;verticalAlign=middle;whiteSpace=wrap;rounded=0;fontColor=#00FF00;" vertex="1" parent="1">
          <mxGeometry x="110" y="730" width="60" height="30" as="geometry" />
        </mxCell>
        <mxCell id="i6Kg3G1_LgCS5JZqoiPE-61" value="1" style="ellipse;whiteSpace=wrap;html=1;aspect=fixed;fillColor=#76608a;fontColor=#ffffff;strokeColor=#432D57;" vertex="1" parent="1">
          <mxGeometry x="120" y="1200" width="40" height="40" as="geometry" />
        </mxCell>
        <mxCell id="i6Kg3G1_LgCS5JZqoiPE-62" value="" style="edgeStyle=orthogonalEdgeStyle;rounded=0;orthogonalLoop=1;jettySize=auto;html=1;fillColor=#76608a;strokeColor=#FFFFFF;" edge="1" parent="1" source="i6Kg3G1_LgCS5JZqoiPE-63" target="i6Kg3G1_LgCS5JZqoiPE-64">
          <mxGeometry relative="1" as="geometry" />
        </mxCell>
        <mxCell id="i6Kg3G1_LgCS5JZqoiPE-63" value="3" style="ellipse;whiteSpace=wrap;html=1;aspect=fixed;fillColor=#76608a;fontColor=#ffffff;strokeColor=#432D57;" vertex="1" parent="1">
          <mxGeometry x="200" y="1200" width="40" height="40" as="geometry" />
        </mxCell>
        <mxCell id="i6Kg3G1_LgCS5JZqoiPE-64" value="5" style="ellipse;whiteSpace=wrap;html=1;aspect=fixed;fillColor=#76608a;fontColor=#ffffff;strokeColor=#432D57;" vertex="1" parent="1">
          <mxGeometry x="280" y="1200" width="40" height="40" as="geometry" />
        </mxCell>
        <mxCell id="i6Kg3G1_LgCS5JZqoiPE-65" value="" style="rounded=0;whiteSpace=wrap;html=1;fillColor=#1ba1e2;strokeColor=#006EAF;fontColor=#ffffff;" vertex="1" parent="1">
          <mxGeometry x="50" y="1130" width="20" height="20" as="geometry" />
        </mxCell>
        <mxCell id="i6Kg3G1_LgCS5JZqoiPE-67" value="1" style="ellipse;whiteSpace=wrap;html=1;aspect=fixed;fillColor=#e51400;fontColor=#ffffff;strokeColor=#B20000;" vertex="1" parent="1">
          <mxGeometry x="120" y="1040" width="40" height="40" as="geometry" />
        </mxCell>
        <mxCell id="i6Kg3G1_LgCS5JZqoiPE-69" value="2" style="ellipse;whiteSpace=wrap;html=1;aspect=fixed;fillColor=#e51400;fontColor=#ffffff;strokeColor=#B20000;" vertex="1" parent="1">
          <mxGeometry x="200" y="1040" width="40" height="40" as="geometry" />
        </mxCell>
        <mxCell id="i6Kg3G1_LgCS5JZqoiPE-70" value="" style="edgeStyle=orthogonalEdgeStyle;rounded=0;orthogonalLoop=1;jettySize=auto;html=1;fillColor=#e51400;strokeColor=#FFFFFF;" edge="1" parent="1" source="i6Kg3G1_LgCS5JZqoiPE-71" target="i6Kg3G1_LgCS5JZqoiPE-72">
          <mxGeometry relative="1" as="geometry" />
        </mxCell>
        <mxCell id="i6Kg3G1_LgCS5JZqoiPE-71" value="4" style="ellipse;whiteSpace=wrap;html=1;aspect=fixed;fillColor=#e51400;fontColor=#ffffff;strokeColor=#B20000;" vertex="1" parent="1">
          <mxGeometry x="280" y="1040" width="40" height="40" as="geometry" />
        </mxCell>
        <mxCell id="i6Kg3G1_LgCS5JZqoiPE-225" value="" style="edgeStyle=orthogonalEdgeStyle;rounded=0;orthogonalLoop=1;jettySize=auto;html=1;" edge="1" parent="1" source="i6Kg3G1_LgCS5JZqoiPE-72" target="i6Kg3G1_LgCS5JZqoiPE-224">
          <mxGeometry relative="1" as="geometry" />
        </mxCell>
        <mxCell id="i6Kg3G1_LgCS5JZqoiPE-72" value="6" style="ellipse;whiteSpace=wrap;html=1;aspect=fixed;fillColor=#e51400;fontColor=#ffffff;strokeColor=#B20000;" vertex="1" parent="1">
          <mxGeometry x="360" y="1040" width="40" height="40" as="geometry" />
        </mxCell>
        <mxCell id="i6Kg3G1_LgCS5JZqoiPE-73" value="L2" style="text;html=1;strokeColor=none;fillColor=none;align=center;verticalAlign=middle;whiteSpace=wrap;rounded=0;fontColor=#00FF00;" vertex="1" parent="1">
          <mxGeometry x="190" y="1240" width="60" height="30" as="geometry" />
        </mxCell>
        <mxCell id="i6Kg3G1_LgCS5JZqoiPE-74" value="" style="endArrow=classic;html=1;rounded=0;exitX=1;exitY=0.5;exitDx=0;exitDy=0;entryX=0;entryY=1;entryDx=0;entryDy=0;fontColor=#00FF00;fillColor=#1ba1e2;strokeColor=#006EAF;" edge="1" parent="1" source="i6Kg3G1_LgCS5JZqoiPE-65" target="i6Kg3G1_LgCS5JZqoiPE-67">
          <mxGeometry x="-0.0207" y="-3" width="50" height="50" relative="1" as="geometry">
            <mxPoint x="260" y="1180" as="sourcePoint" />
            <mxPoint x="310" y="1130" as="targetPoint" />
            <mxPoint as="offset" />
          </mxGeometry>
        </mxCell>
        <mxCell id="i6Kg3G1_LgCS5JZqoiPE-75" value="&lt;font color=&quot;#00ff00&quot;&gt;L1.VAL &amp;lt; L2.VAL&lt;/font&gt;" style="text;html=1;strokeColor=none;fillColor=none;align=center;verticalAlign=middle;whiteSpace=wrap;rounded=0;" vertex="1" parent="1">
          <mxGeometry x="190" y="1120" width="110" height="30" as="geometry" />
        </mxCell>
        <mxCell id="i6Kg3G1_LgCS5JZqoiPE-76" value="" style="endArrow=classic;html=1;rounded=0;exitX=0.5;exitY=1;exitDx=0;exitDy=0;entryX=0.5;entryY=0;entryDx=0;entryDy=0;fontColor=#00FF00;fillColor=#1ba1e2;strokeColor=#006EAF;" edge="1" parent="1" source="i6Kg3G1_LgCS5JZqoiPE-67" target="i6Kg3G1_LgCS5JZqoiPE-61">
          <mxGeometry x="-0.0207" y="-3" width="50" height="50" relative="1" as="geometry">
            <mxPoint x="80" y="1150" as="sourcePoint" />
            <mxPoint x="136" y="1084" as="targetPoint" />
            <mxPoint as="offset" />
          </mxGeometry>
        </mxCell>
        <mxCell id="i6Kg3G1_LgCS5JZqoiPE-77" value="Curr" style="text;html=1;strokeColor=none;fillColor=none;align=center;verticalAlign=middle;whiteSpace=wrap;rounded=0;fontColor=#00FF00;" vertex="1" parent="1">
          <mxGeometry x="110" y="1240" width="60" height="30" as="geometry" />
        </mxCell>
        <mxCell id="i6Kg3G1_LgCS5JZqoiPE-80" value="L1" style="text;html=1;strokeColor=none;fillColor=none;align=center;verticalAlign=middle;whiteSpace=wrap;rounded=0;fontColor=#00FF00;labelBackgroundColor=default;" vertex="1" parent="1">
          <mxGeometry x="190" y="1010" width="60" height="30" as="geometry" />
        </mxCell>
        <mxCell id="i6Kg3G1_LgCS5JZqoiPE-81" value="" style="endArrow=classic;html=1;rounded=0;exitX=1;exitY=0;exitDx=0;exitDy=0;entryX=0;entryY=1;entryDx=0;entryDy=0;fontColor=#00FF00;fillColor=#1ba1e2;strokeColor=#006EAF;" edge="1" parent="1" source="i6Kg3G1_LgCS5JZqoiPE-61" target="i6Kg3G1_LgCS5JZqoiPE-69">
          <mxGeometry x="-0.0207" y="-3" width="50" height="50" relative="1" as="geometry">
            <mxPoint x="150" y="1090" as="sourcePoint" />
            <mxPoint x="150" y="1210" as="targetPoint" />
            <mxPoint as="offset" />
          </mxGeometry>
        </mxCell>
        <mxCell id="i6Kg3G1_LgCS5JZqoiPE-84" value="L1" style="text;html=1;strokeColor=none;fillColor=none;align=center;verticalAlign=middle;whiteSpace=wrap;rounded=0;fontColor=#7F00FF;" vertex="1" parent="1">
          <mxGeometry x="270" y="1010" width="60" height="30" as="geometry" />
        </mxCell>
        <mxCell id="i6Kg3G1_LgCS5JZqoiPE-85" value="" style="endArrow=classic;html=1;rounded=0;exitX=1;exitY=0.5;exitDx=0;exitDy=0;fillColor=#6a00ff;strokeColor=#3700CC;" edge="1" parent="1">
          <mxGeometry width="50" height="50" relative="1" as="geometry">
            <mxPoint x="250" y="1024.76" as="sourcePoint" />
            <mxPoint x="270" y="1024.76" as="targetPoint" />
          </mxGeometry>
        </mxCell>
        <mxCell id="i6Kg3G1_LgCS5JZqoiPE-86" value="Curr" style="text;html=1;strokeColor=none;fillColor=none;align=center;verticalAlign=middle;whiteSpace=wrap;rounded=0;fontColor=#7F00FF;" vertex="1" parent="1">
          <mxGeometry x="190" y="1080" width="60" height="30" as="geometry" />
        </mxCell>
        <mxCell id="i6Kg3G1_LgCS5JZqoiPE-88" value="1" style="ellipse;whiteSpace=wrap;html=1;aspect=fixed;fillColor=#76608a;fontColor=#ffffff;strokeColor=#432D57;" vertex="1" parent="1">
          <mxGeometry x="122.5" y="1480" width="40" height="40" as="geometry" />
        </mxCell>
        <mxCell id="i6Kg3G1_LgCS5JZqoiPE-90" value="3" style="ellipse;whiteSpace=wrap;html=1;aspect=fixed;fillColor=#76608a;fontColor=#ffffff;strokeColor=#432D57;" vertex="1" parent="1">
          <mxGeometry x="202.5" y="1480" width="40" height="40" as="geometry" />
        </mxCell>
        <mxCell id="i6Kg3G1_LgCS5JZqoiPE-91" value="5" style="ellipse;whiteSpace=wrap;html=1;aspect=fixed;fillColor=#76608a;fontColor=#ffffff;strokeColor=#432D57;" vertex="1" parent="1">
          <mxGeometry x="282.5" y="1480" width="40" height="40" as="geometry" />
        </mxCell>
        <mxCell id="i6Kg3G1_LgCS5JZqoiPE-92" value="" style="rounded=0;whiteSpace=wrap;html=1;fillColor=#1ba1e2;strokeColor=#006EAF;fontColor=#ffffff;" vertex="1" parent="1">
          <mxGeometry x="52.5" y="1410" width="20" height="20" as="geometry" />
        </mxCell>
        <mxCell id="i6Kg3G1_LgCS5JZqoiPE-94" value="1" style="ellipse;whiteSpace=wrap;html=1;aspect=fixed;fillColor=#e51400;fontColor=#ffffff;strokeColor=#B20000;" vertex="1" parent="1">
          <mxGeometry x="122.5" y="1320" width="40" height="40" as="geometry" />
        </mxCell>
        <mxCell id="i6Kg3G1_LgCS5JZqoiPE-96" value="2" style="ellipse;whiteSpace=wrap;html=1;aspect=fixed;fillColor=#e51400;fontColor=#ffffff;strokeColor=#B20000;" vertex="1" parent="1">
          <mxGeometry x="202.5" y="1320" width="40" height="40" as="geometry" />
        </mxCell>
        <mxCell id="i6Kg3G1_LgCS5JZqoiPE-97" value="" style="edgeStyle=orthogonalEdgeStyle;rounded=0;orthogonalLoop=1;jettySize=auto;html=1;fillColor=#e51400;strokeColor=#FFFFFF;" edge="1" parent="1" source="i6Kg3G1_LgCS5JZqoiPE-98" target="i6Kg3G1_LgCS5JZqoiPE-99">
          <mxGeometry relative="1" as="geometry" />
        </mxCell>
        <mxCell id="i6Kg3G1_LgCS5JZqoiPE-98" value="4" style="ellipse;whiteSpace=wrap;html=1;aspect=fixed;fillColor=#e51400;fontColor=#ffffff;strokeColor=#B20000;" vertex="1" parent="1">
          <mxGeometry x="282.5" y="1320" width="40" height="40" as="geometry" />
        </mxCell>
        <mxCell id="i6Kg3G1_LgCS5JZqoiPE-227" value="" style="edgeStyle=orthogonalEdgeStyle;rounded=0;orthogonalLoop=1;jettySize=auto;html=1;" edge="1" parent="1" source="i6Kg3G1_LgCS5JZqoiPE-99" target="i6Kg3G1_LgCS5JZqoiPE-226">
          <mxGeometry relative="1" as="geometry" />
        </mxCell>
        <mxCell id="i6Kg3G1_LgCS5JZqoiPE-99" value="6" style="ellipse;whiteSpace=wrap;html=1;aspect=fixed;fillColor=#e51400;fontColor=#ffffff;strokeColor=#B20000;" vertex="1" parent="1">
          <mxGeometry x="362.5" y="1320" width="40" height="40" as="geometry" />
        </mxCell>
        <mxCell id="i6Kg3G1_LgCS5JZqoiPE-100" value="L2" style="text;html=1;strokeColor=none;fillColor=none;align=center;verticalAlign=middle;whiteSpace=wrap;rounded=0;fontColor=#00FF00;" vertex="1" parent="1">
          <mxGeometry x="192.5" y="1520" width="60" height="30" as="geometry" />
        </mxCell>
        <mxCell id="i6Kg3G1_LgCS5JZqoiPE-101" value="" style="endArrow=classic;html=1;rounded=0;exitX=1;exitY=0.5;exitDx=0;exitDy=0;entryX=0;entryY=1;entryDx=0;entryDy=0;fontColor=#00FF00;fillColor=#1ba1e2;strokeColor=#006EAF;" edge="1" parent="1" source="i6Kg3G1_LgCS5JZqoiPE-92" target="i6Kg3G1_LgCS5JZqoiPE-94">
          <mxGeometry x="-0.0207" y="-3" width="50" height="50" relative="1" as="geometry">
            <mxPoint x="262.5" y="1460" as="sourcePoint" />
            <mxPoint x="312.5" y="1410" as="targetPoint" />
            <mxPoint as="offset" />
          </mxGeometry>
        </mxCell>
        <mxCell id="i6Kg3G1_LgCS5JZqoiPE-102" value="&lt;font color=&quot;#00ff00&quot;&gt;L2.VAL &amp;lt;= L1.VAL&lt;/font&gt;" style="text;html=1;strokeColor=none;fillColor=none;align=center;verticalAlign=middle;whiteSpace=wrap;rounded=0;" vertex="1" parent="1">
          <mxGeometry x="232.5" y="1400" width="110" height="30" as="geometry" />
        </mxCell>
        <mxCell id="i6Kg3G1_LgCS5JZqoiPE-103" value="" style="endArrow=classic;html=1;rounded=0;exitX=0.5;exitY=1;exitDx=0;exitDy=0;entryX=0.5;entryY=0;entryDx=0;entryDy=0;fontColor=#00FF00;fillColor=#1ba1e2;strokeColor=#006EAF;" edge="1" parent="1" source="i6Kg3G1_LgCS5JZqoiPE-94" target="i6Kg3G1_LgCS5JZqoiPE-88">
          <mxGeometry x="-0.0207" y="-3" width="50" height="50" relative="1" as="geometry">
            <mxPoint x="82.5" y="1430" as="sourcePoint" />
            <mxPoint x="138.5" y="1364" as="targetPoint" />
            <mxPoint as="offset" />
          </mxGeometry>
        </mxCell>
        <mxCell id="i6Kg3G1_LgCS5JZqoiPE-105" value="L1" style="text;html=1;strokeColor=none;fillColor=none;align=center;verticalAlign=middle;whiteSpace=wrap;rounded=0;fontColor=#00FF00;labelBackgroundColor=default;" vertex="1" parent="1">
          <mxGeometry x="265" y="1290" width="60" height="30" as="geometry" />
        </mxCell>
        <mxCell id="i6Kg3G1_LgCS5JZqoiPE-106" value="" style="endArrow=classic;html=1;rounded=0;exitX=1;exitY=0;exitDx=0;exitDy=0;entryX=0;entryY=1;entryDx=0;entryDy=0;fontColor=#00FF00;fillColor=#1ba1e2;strokeColor=#006EAF;" edge="1" parent="1" source="i6Kg3G1_LgCS5JZqoiPE-88" target="i6Kg3G1_LgCS5JZqoiPE-96">
          <mxGeometry x="-0.0207" y="-3" width="50" height="50" relative="1" as="geometry">
            <mxPoint x="152.5" y="1370" as="sourcePoint" />
            <mxPoint x="152.5" y="1490" as="targetPoint" />
            <mxPoint as="offset" />
          </mxGeometry>
        </mxCell>
        <mxCell id="i6Kg3G1_LgCS5JZqoiPE-110" value="Curr" style="text;html=1;strokeColor=none;fillColor=none;align=center;verticalAlign=middle;whiteSpace=wrap;rounded=0;fontColor=#00FF00;" vertex="1" parent="1">
          <mxGeometry x="185" y="1290" width="60" height="30" as="geometry" />
        </mxCell>
        <mxCell id="i6Kg3G1_LgCS5JZqoiPE-111" value="" style="endArrow=classic;html=1;rounded=0;exitX=0.5;exitY=1;exitDx=0;exitDy=0;fontColor=#00FF00;fillColor=#1ba1e2;strokeColor=#006EAF;entryX=0.5;entryY=0;entryDx=0;entryDy=0;" edge="1" parent="1" source="i6Kg3G1_LgCS5JZqoiPE-96" target="i6Kg3G1_LgCS5JZqoiPE-90">
          <mxGeometry x="-0.0207" y="-3" width="50" height="50" relative="1" as="geometry">
            <mxPoint x="166.5" y="1496" as="sourcePoint" />
            <mxPoint x="218.5" y="1364" as="targetPoint" />
            <mxPoint as="offset" />
          </mxGeometry>
        </mxCell>
        <mxCell id="i6Kg3G1_LgCS5JZqoiPE-112" value="L2" style="text;html=1;strokeColor=none;fillColor=none;align=center;verticalAlign=middle;whiteSpace=wrap;rounded=0;fontColor=#7F00FF;" vertex="1" parent="1">
          <mxGeometry x="272.5" y="1520" width="60" height="30" as="geometry" />
        </mxCell>
        <mxCell id="i6Kg3G1_LgCS5JZqoiPE-113" value="" style="endArrow=classic;html=1;rounded=0;exitX=1;exitY=0.5;exitDx=0;exitDy=0;fillColor=#6a00ff;strokeColor=#3700CC;" edge="1" parent="1" target="i6Kg3G1_LgCS5JZqoiPE-112">
          <mxGeometry width="50" height="50" relative="1" as="geometry">
            <mxPoint x="252.5" y="1535" as="sourcePoint" />
            <mxPoint x="322.5" y="1560" as="targetPoint" />
          </mxGeometry>
        </mxCell>
        <mxCell id="i6Kg3G1_LgCS5JZqoiPE-116" value="Curr" style="text;html=1;strokeColor=none;fillColor=none;align=center;verticalAlign=middle;whiteSpace=wrap;rounded=0;fontColor=#7F00FF;" vertex="1" parent="1">
          <mxGeometry x="172.5" y="1520" width="60" height="30" as="geometry" />
        </mxCell>
        <mxCell id="i6Kg3G1_LgCS5JZqoiPE-118" value="1" style="ellipse;whiteSpace=wrap;html=1;aspect=fixed;fillColor=#76608a;fontColor=#ffffff;strokeColor=#432D57;" vertex="1" parent="1">
          <mxGeometry x="120" y="1760" width="40" height="40" as="geometry" />
        </mxCell>
        <mxCell id="i6Kg3G1_LgCS5JZqoiPE-120" value="3" style="ellipse;whiteSpace=wrap;html=1;aspect=fixed;fillColor=#76608a;fontColor=#ffffff;strokeColor=#432D57;" vertex="1" parent="1">
          <mxGeometry x="200" y="1760" width="40" height="40" as="geometry" />
        </mxCell>
        <mxCell id="i6Kg3G1_LgCS5JZqoiPE-121" value="5" style="ellipse;whiteSpace=wrap;html=1;aspect=fixed;fillColor=#76608a;fontColor=#ffffff;strokeColor=#432D57;" vertex="1" parent="1">
          <mxGeometry x="280" y="1760" width="40" height="40" as="geometry" />
        </mxCell>
        <mxCell id="i6Kg3G1_LgCS5JZqoiPE-122" value="" style="rounded=0;whiteSpace=wrap;html=1;fillColor=#1ba1e2;strokeColor=#006EAF;fontColor=#ffffff;" vertex="1" parent="1">
          <mxGeometry x="50" y="1690" width="20" height="20" as="geometry" />
        </mxCell>
        <mxCell id="i6Kg3G1_LgCS5JZqoiPE-124" value="1" style="ellipse;whiteSpace=wrap;html=1;aspect=fixed;fillColor=#e51400;fontColor=#ffffff;strokeColor=#B20000;" vertex="1" parent="1">
          <mxGeometry x="120" y="1600" width="40" height="40" as="geometry" />
        </mxCell>
        <mxCell id="i6Kg3G1_LgCS5JZqoiPE-126" value="2" style="ellipse;whiteSpace=wrap;html=1;aspect=fixed;fillColor=#e51400;fontColor=#ffffff;strokeColor=#B20000;" vertex="1" parent="1">
          <mxGeometry x="200" y="1600" width="40" height="40" as="geometry" />
        </mxCell>
        <mxCell id="i6Kg3G1_LgCS5JZqoiPE-127" value="" style="edgeStyle=orthogonalEdgeStyle;rounded=0;orthogonalLoop=1;jettySize=auto;html=1;fillColor=#e51400;strokeColor=#FFFFFF;" edge="1" parent="1" source="i6Kg3G1_LgCS5JZqoiPE-128" target="i6Kg3G1_LgCS5JZqoiPE-129">
          <mxGeometry relative="1" as="geometry" />
        </mxCell>
        <mxCell id="i6Kg3G1_LgCS5JZqoiPE-128" value="4" style="ellipse;whiteSpace=wrap;html=1;aspect=fixed;fillColor=#e51400;fontColor=#ffffff;strokeColor=#B20000;" vertex="1" parent="1">
          <mxGeometry x="280" y="1600" width="40" height="40" as="geometry" />
        </mxCell>
        <mxCell id="i6Kg3G1_LgCS5JZqoiPE-229" value="" style="edgeStyle=orthogonalEdgeStyle;rounded=0;orthogonalLoop=1;jettySize=auto;html=1;" edge="1" parent="1" source="i6Kg3G1_LgCS5JZqoiPE-129" target="i6Kg3G1_LgCS5JZqoiPE-228">
          <mxGeometry relative="1" as="geometry" />
        </mxCell>
        <mxCell id="i6Kg3G1_LgCS5JZqoiPE-129" value="6" style="ellipse;whiteSpace=wrap;html=1;aspect=fixed;fillColor=#e51400;fontColor=#ffffff;strokeColor=#B20000;" vertex="1" parent="1">
          <mxGeometry x="360" y="1600" width="40" height="40" as="geometry" />
        </mxCell>
        <mxCell id="i6Kg3G1_LgCS5JZqoiPE-131" value="" style="endArrow=classic;html=1;rounded=0;exitX=1;exitY=0.5;exitDx=0;exitDy=0;entryX=0;entryY=1;entryDx=0;entryDy=0;fontColor=#00FF00;fillColor=#1ba1e2;strokeColor=#006EAF;" edge="1" parent="1" source="i6Kg3G1_LgCS5JZqoiPE-122" target="i6Kg3G1_LgCS5JZqoiPE-124">
          <mxGeometry x="-0.0207" y="-3" width="50" height="50" relative="1" as="geometry">
            <mxPoint x="260" y="1740" as="sourcePoint" />
            <mxPoint x="310" y="1690" as="targetPoint" />
            <mxPoint as="offset" />
          </mxGeometry>
        </mxCell>
        <mxCell id="i6Kg3G1_LgCS5JZqoiPE-132" value="&lt;font color=&quot;#00ff00&quot;&gt;L1.VAL &amp;lt; L2.VAL&lt;/font&gt;" style="text;html=1;strokeColor=none;fillColor=none;align=center;verticalAlign=middle;whiteSpace=wrap;rounded=0;" vertex="1" parent="1">
          <mxGeometry x="340" y="1685" width="110" height="30" as="geometry" />
        </mxCell>
        <mxCell id="i6Kg3G1_LgCS5JZqoiPE-133" value="" style="endArrow=classic;html=1;rounded=0;exitX=0.5;exitY=1;exitDx=0;exitDy=0;entryX=0.5;entryY=0;entryDx=0;entryDy=0;fontColor=#00FF00;fillColor=#1ba1e2;strokeColor=#006EAF;" edge="1" parent="1" source="i6Kg3G1_LgCS5JZqoiPE-124" target="i6Kg3G1_LgCS5JZqoiPE-118">
          <mxGeometry x="-0.0207" y="-3" width="50" height="50" relative="1" as="geometry">
            <mxPoint x="80" y="1710" as="sourcePoint" />
            <mxPoint x="136" y="1644" as="targetPoint" />
            <mxPoint as="offset" />
          </mxGeometry>
        </mxCell>
        <mxCell id="i6Kg3G1_LgCS5JZqoiPE-134" value="L1" style="text;html=1;strokeColor=none;fillColor=none;align=center;verticalAlign=middle;whiteSpace=wrap;rounded=0;fontColor=#00FF00;labelBackgroundColor=default;" vertex="1" parent="1">
          <mxGeometry x="270" y="1570" width="60" height="30" as="geometry" />
        </mxCell>
        <mxCell id="i6Kg3G1_LgCS5JZqoiPE-135" value="" style="endArrow=classic;html=1;rounded=0;exitX=1;exitY=0;exitDx=0;exitDy=0;entryX=0;entryY=1;entryDx=0;entryDy=0;fontColor=#00FF00;fillColor=#1ba1e2;strokeColor=#006EAF;" edge="1" parent="1" source="i6Kg3G1_LgCS5JZqoiPE-118" target="i6Kg3G1_LgCS5JZqoiPE-126">
          <mxGeometry x="-0.0207" y="-3" width="50" height="50" relative="1" as="geometry">
            <mxPoint x="150" y="1650" as="sourcePoint" />
            <mxPoint x="150" y="1770" as="targetPoint" />
            <mxPoint as="offset" />
          </mxGeometry>
        </mxCell>
        <mxCell id="i6Kg3G1_LgCS5JZqoiPE-136" value="Curr" style="text;html=1;strokeColor=none;fillColor=none;align=center;verticalAlign=middle;whiteSpace=wrap;rounded=0;fontColor=#00FF00;" vertex="1" parent="1">
          <mxGeometry x="190" y="1800" width="60" height="30" as="geometry" />
        </mxCell>
        <mxCell id="i6Kg3G1_LgCS5JZqoiPE-137" value="" style="endArrow=classic;html=1;rounded=0;exitX=0.5;exitY=1;exitDx=0;exitDy=0;fontColor=#00FF00;fillColor=#1ba1e2;strokeColor=#006EAF;" edge="1" parent="1" source="i6Kg3G1_LgCS5JZqoiPE-126" target="i6Kg3G1_LgCS5JZqoiPE-120">
          <mxGeometry x="-0.0207" y="-3" width="50" height="50" relative="1" as="geometry">
            <mxPoint x="164" y="1776" as="sourcePoint" />
            <mxPoint x="216" y="1644" as="targetPoint" />
            <mxPoint as="offset" />
          </mxGeometry>
        </mxCell>
        <mxCell id="i6Kg3G1_LgCS5JZqoiPE-138" value="L2" style="text;html=1;strokeColor=none;fillColor=none;align=center;verticalAlign=middle;whiteSpace=wrap;rounded=0;fontColor=#00FF00;" vertex="1" parent="1">
          <mxGeometry x="270" y="1800" width="60" height="30" as="geometry" />
        </mxCell>
        <mxCell id="i6Kg3G1_LgCS5JZqoiPE-142" value="" style="endArrow=classic;html=1;rounded=0;exitX=1;exitY=0;exitDx=0;exitDy=0;fontColor=#00FF00;fillColor=#1ba1e2;strokeColor=#006EAF;entryX=0;entryY=1;entryDx=0;entryDy=0;" edge="1" parent="1" source="i6Kg3G1_LgCS5JZqoiPE-120" target="i6Kg3G1_LgCS5JZqoiPE-128">
          <mxGeometry x="-0.0207" y="-3" width="50" height="50" relative="1" as="geometry">
            <mxPoint x="230" y="1650" as="sourcePoint" />
            <mxPoint x="230" y="1770" as="targetPoint" />
            <mxPoint as="offset" />
          </mxGeometry>
        </mxCell>
        <mxCell id="i6Kg3G1_LgCS5JZqoiPE-144" value="L1" style="text;html=1;strokeColor=none;fillColor=none;align=center;verticalAlign=middle;whiteSpace=wrap;rounded=0;fontColor=#7F00FF;" vertex="1" parent="1">
          <mxGeometry x="350" y="1570" width="60" height="30" as="geometry" />
        </mxCell>
        <mxCell id="i6Kg3G1_LgCS5JZqoiPE-145" value="" style="endArrow=classic;html=1;rounded=0;exitX=1;exitY=0.5;exitDx=0;exitDy=0;fillColor=#6a00ff;strokeColor=#3700CC;" edge="1" parent="1" target="i6Kg3G1_LgCS5JZqoiPE-144">
          <mxGeometry width="50" height="50" relative="1" as="geometry">
            <mxPoint x="330" y="1585" as="sourcePoint" />
            <mxPoint x="400" y="1610" as="targetPoint" />
          </mxGeometry>
        </mxCell>
        <mxCell id="i6Kg3G1_LgCS5JZqoiPE-146" value="Curr" style="text;html=1;strokeColor=none;fillColor=none;align=center;verticalAlign=middle;whiteSpace=wrap;rounded=0;fontColor=#7F00FF;" vertex="1" parent="1">
          <mxGeometry x="250" y="1570" width="60" height="30" as="geometry" />
        </mxCell>
        <mxCell id="i6Kg3G1_LgCS5JZqoiPE-148" value="1" style="ellipse;whiteSpace=wrap;html=1;aspect=fixed;fillColor=#76608a;fontColor=#ffffff;strokeColor=#432D57;" vertex="1" parent="1">
          <mxGeometry x="120" y="2040" width="40" height="40" as="geometry" />
        </mxCell>
        <mxCell id="i6Kg3G1_LgCS5JZqoiPE-150" value="3" style="ellipse;whiteSpace=wrap;html=1;aspect=fixed;fillColor=#76608a;fontColor=#ffffff;strokeColor=#432D57;" vertex="1" parent="1">
          <mxGeometry x="200" y="2040" width="40" height="40" as="geometry" />
        </mxCell>
        <mxCell id="i6Kg3G1_LgCS5JZqoiPE-151" value="5" style="ellipse;whiteSpace=wrap;html=1;aspect=fixed;fillColor=#76608a;fontColor=#ffffff;strokeColor=#432D57;" vertex="1" parent="1">
          <mxGeometry x="280" y="2040" width="40" height="40" as="geometry" />
        </mxCell>
        <mxCell id="i6Kg3G1_LgCS5JZqoiPE-152" value="" style="rounded=0;whiteSpace=wrap;html=1;fillColor=#1ba1e2;strokeColor=#006EAF;fontColor=#ffffff;" vertex="1" parent="1">
          <mxGeometry x="50" y="1970" width="20" height="20" as="geometry" />
        </mxCell>
        <mxCell id="i6Kg3G1_LgCS5JZqoiPE-154" value="1" style="ellipse;whiteSpace=wrap;html=1;aspect=fixed;fillColor=#e51400;fontColor=#ffffff;strokeColor=#B20000;" vertex="1" parent="1">
          <mxGeometry x="120" y="1880" width="40" height="40" as="geometry" />
        </mxCell>
        <mxCell id="i6Kg3G1_LgCS5JZqoiPE-156" value="2" style="ellipse;whiteSpace=wrap;html=1;aspect=fixed;fillColor=#e51400;fontColor=#ffffff;strokeColor=#B20000;" vertex="1" parent="1">
          <mxGeometry x="200" y="1880" width="40" height="40" as="geometry" />
        </mxCell>
        <mxCell id="i6Kg3G1_LgCS5JZqoiPE-157" value="" style="edgeStyle=orthogonalEdgeStyle;rounded=0;orthogonalLoop=1;jettySize=auto;html=1;fillColor=#e51400;strokeColor=#FFFFFF;" edge="1" parent="1" source="i6Kg3G1_LgCS5JZqoiPE-158" target="i6Kg3G1_LgCS5JZqoiPE-159">
          <mxGeometry relative="1" as="geometry" />
        </mxCell>
        <mxCell id="i6Kg3G1_LgCS5JZqoiPE-158" value="4" style="ellipse;whiteSpace=wrap;html=1;aspect=fixed;fillColor=#e51400;fontColor=#ffffff;strokeColor=#B20000;" vertex="1" parent="1">
          <mxGeometry x="280" y="1880" width="40" height="40" as="geometry" />
        </mxCell>
        <mxCell id="i6Kg3G1_LgCS5JZqoiPE-231" value="" style="edgeStyle=orthogonalEdgeStyle;rounded=0;orthogonalLoop=1;jettySize=auto;html=1;" edge="1" parent="1" source="i6Kg3G1_LgCS5JZqoiPE-159" target="i6Kg3G1_LgCS5JZqoiPE-230">
          <mxGeometry relative="1" as="geometry" />
        </mxCell>
        <mxCell id="i6Kg3G1_LgCS5JZqoiPE-159" value="6" style="ellipse;whiteSpace=wrap;html=1;aspect=fixed;fillColor=#e51400;fontColor=#ffffff;strokeColor=#B20000;" vertex="1" parent="1">
          <mxGeometry x="360" y="1880" width="40" height="40" as="geometry" />
        </mxCell>
        <mxCell id="i6Kg3G1_LgCS5JZqoiPE-160" value="" style="endArrow=classic;html=1;rounded=0;exitX=1;exitY=0.5;exitDx=0;exitDy=0;entryX=0;entryY=1;entryDx=0;entryDy=0;fontColor=#00FF00;fillColor=#1ba1e2;strokeColor=#006EAF;" edge="1" parent="1" source="i6Kg3G1_LgCS5JZqoiPE-152" target="i6Kg3G1_LgCS5JZqoiPE-154">
          <mxGeometry x="-0.0207" y="-3" width="50" height="50" relative="1" as="geometry">
            <mxPoint x="260" y="2020" as="sourcePoint" />
            <mxPoint x="310" y="1970" as="targetPoint" />
            <mxPoint as="offset" />
          </mxGeometry>
        </mxCell>
        <mxCell id="i6Kg3G1_LgCS5JZqoiPE-161" value="&lt;font color=&quot;#00ff00&quot;&gt;L2.VAL &amp;lt;= L1.VAL&lt;/font&gt;" style="text;html=1;strokeColor=none;fillColor=none;align=center;verticalAlign=middle;whiteSpace=wrap;rounded=0;" vertex="1" parent="1">
          <mxGeometry x="420" y="1965" width="110" height="30" as="geometry" />
        </mxCell>
        <mxCell id="i6Kg3G1_LgCS5JZqoiPE-162" value="" style="endArrow=classic;html=1;rounded=0;exitX=0.5;exitY=1;exitDx=0;exitDy=0;entryX=0.5;entryY=0;entryDx=0;entryDy=0;fontColor=#00FF00;fillColor=#1ba1e2;strokeColor=#006EAF;" edge="1" parent="1" source="i6Kg3G1_LgCS5JZqoiPE-154" target="i6Kg3G1_LgCS5JZqoiPE-148">
          <mxGeometry x="-0.0207" y="-3" width="50" height="50" relative="1" as="geometry">
            <mxPoint x="80" y="1990" as="sourcePoint" />
            <mxPoint x="136" y="1924" as="targetPoint" />
            <mxPoint as="offset" />
          </mxGeometry>
        </mxCell>
        <mxCell id="i6Kg3G1_LgCS5JZqoiPE-164" value="" style="endArrow=classic;html=1;rounded=0;exitX=1;exitY=0;exitDx=0;exitDy=0;entryX=0;entryY=1;entryDx=0;entryDy=0;fontColor=#00FF00;fillColor=#1ba1e2;strokeColor=#006EAF;" edge="1" parent="1" source="i6Kg3G1_LgCS5JZqoiPE-148" target="i6Kg3G1_LgCS5JZqoiPE-156">
          <mxGeometry x="-0.0207" y="-3" width="50" height="50" relative="1" as="geometry">
            <mxPoint x="150" y="1930" as="sourcePoint" />
            <mxPoint x="150" y="2050" as="targetPoint" />
            <mxPoint as="offset" />
          </mxGeometry>
        </mxCell>
        <mxCell id="i6Kg3G1_LgCS5JZqoiPE-165" value="Curr" style="text;html=1;strokeColor=none;fillColor=none;align=center;verticalAlign=middle;whiteSpace=wrap;rounded=0;fontColor=#00FF00;" vertex="1" parent="1">
          <mxGeometry x="270" y="1850" width="60" height="30" as="geometry" />
        </mxCell>
        <mxCell id="i6Kg3G1_LgCS5JZqoiPE-166" value="" style="endArrow=classic;html=1;rounded=0;exitX=0.5;exitY=1;exitDx=0;exitDy=0;fontColor=#00FF00;fillColor=#1ba1e2;strokeColor=#006EAF;" edge="1" parent="1" source="i6Kg3G1_LgCS5JZqoiPE-156" target="i6Kg3G1_LgCS5JZqoiPE-150">
          <mxGeometry x="-0.0207" y="-3" width="50" height="50" relative="1" as="geometry">
            <mxPoint x="164" y="2056" as="sourcePoint" />
            <mxPoint x="216" y="1924" as="targetPoint" />
            <mxPoint as="offset" />
          </mxGeometry>
        </mxCell>
        <mxCell id="i6Kg3G1_LgCS5JZqoiPE-167" value="L2" style="text;html=1;strokeColor=none;fillColor=none;align=center;verticalAlign=middle;whiteSpace=wrap;rounded=0;fontColor=#00FF00;" vertex="1" parent="1">
          <mxGeometry x="270" y="2080" width="60" height="30" as="geometry" />
        </mxCell>
        <mxCell id="i6Kg3G1_LgCS5JZqoiPE-168" value="" style="endArrow=classic;html=1;rounded=0;exitX=1;exitY=0;exitDx=0;exitDy=0;fontColor=#00FF00;fillColor=#1ba1e2;strokeColor=#006EAF;entryX=0;entryY=1;entryDx=0;entryDy=0;" edge="1" parent="1" source="i6Kg3G1_LgCS5JZqoiPE-150" target="i6Kg3G1_LgCS5JZqoiPE-158">
          <mxGeometry x="-0.0207" y="-3" width="50" height="50" relative="1" as="geometry">
            <mxPoint x="230" y="1930" as="sourcePoint" />
            <mxPoint x="230" y="2050" as="targetPoint" />
            <mxPoint as="offset" />
          </mxGeometry>
        </mxCell>
        <mxCell id="i6Kg3G1_LgCS5JZqoiPE-172" value="L1" style="text;html=1;strokeColor=none;fillColor=none;align=center;verticalAlign=middle;whiteSpace=wrap;rounded=0;fontColor=#00FF00;labelBackgroundColor=default;" vertex="1" parent="1">
          <mxGeometry x="350" y="1850" width="60" height="30" as="geometry" />
        </mxCell>
        <mxCell id="i6Kg3G1_LgCS5JZqoiPE-173" value="" style="endArrow=classic;html=1;rounded=0;fontColor=#00FF00;fillColor=#1ba1e2;strokeColor=#006EAF;entryX=0.5;entryY=0;entryDx=0;entryDy=0;exitX=0.5;exitY=1;exitDx=0;exitDy=0;" edge="1" parent="1" source="i6Kg3G1_LgCS5JZqoiPE-158" target="i6Kg3G1_LgCS5JZqoiPE-151">
          <mxGeometry x="-0.0207" y="-3" width="50" height="50" relative="1" as="geometry">
            <mxPoint x="340" y="1950" as="sourcePoint" />
            <mxPoint x="296" y="1924" as="targetPoint" />
            <mxPoint as="offset" />
          </mxGeometry>
        </mxCell>
        <mxCell id="i6Kg3G1_LgCS5JZqoiPE-175" value="None" style="text;html=1;strokeColor=none;fillColor=none;align=center;verticalAlign=middle;whiteSpace=wrap;rounded=0;" vertex="1" parent="1">
          <mxGeometry x="360" y="2045" width="60" height="30" as="geometry" />
        </mxCell>
        <mxCell id="i6Kg3G1_LgCS5JZqoiPE-177" value="Curr" style="text;html=1;strokeColor=none;fillColor=none;align=center;verticalAlign=middle;whiteSpace=wrap;rounded=0;fontColor=#7F00FF;" vertex="1" parent="1">
          <mxGeometry x="240" y="2080" width="60" height="30" as="geometry" />
        </mxCell>
        <mxCell id="i6Kg3G1_LgCS5JZqoiPE-178" value="L2" style="text;html=1;strokeColor=none;fillColor=none;align=center;verticalAlign=middle;whiteSpace=wrap;rounded=0;fontColor=#7F00FF;" vertex="1" parent="1">
          <mxGeometry x="350" y="2080" width="60" height="30" as="geometry" />
        </mxCell>
        <mxCell id="i6Kg3G1_LgCS5JZqoiPE-179" value="" style="endArrow=classic;html=1;rounded=0;exitX=1;exitY=0.5;exitDx=0;exitDy=0;fillColor=#6a00ff;strokeColor=#3700CC;" edge="1" parent="1" target="i6Kg3G1_LgCS5JZqoiPE-178">
          <mxGeometry width="50" height="50" relative="1" as="geometry">
            <mxPoint x="330" y="2095" as="sourcePoint" />
            <mxPoint x="400" y="2120" as="targetPoint" />
          </mxGeometry>
        </mxCell>
        <mxCell id="i6Kg3G1_LgCS5JZqoiPE-181" value="1" style="ellipse;whiteSpace=wrap;html=1;aspect=fixed;fillColor=#76608a;fontColor=#ffffff;strokeColor=#432D57;" vertex="1" parent="1">
          <mxGeometry x="120" y="2320" width="40" height="40" as="geometry" />
        </mxCell>
        <mxCell id="i6Kg3G1_LgCS5JZqoiPE-183" value="3" style="ellipse;whiteSpace=wrap;html=1;aspect=fixed;fillColor=#76608a;fontColor=#ffffff;strokeColor=#432D57;" vertex="1" parent="1">
          <mxGeometry x="200" y="2320" width="40" height="40" as="geometry" />
        </mxCell>
        <mxCell id="i6Kg3G1_LgCS5JZqoiPE-184" value="5" style="ellipse;whiteSpace=wrap;html=1;aspect=fixed;fillColor=#76608a;fontColor=#ffffff;strokeColor=#432D57;" vertex="1" parent="1">
          <mxGeometry x="280" y="2320" width="40" height="40" as="geometry" />
        </mxCell>
        <mxCell id="i6Kg3G1_LgCS5JZqoiPE-185" value="" style="rounded=0;whiteSpace=wrap;html=1;fillColor=#1ba1e2;strokeColor=#006EAF;fontColor=#ffffff;" vertex="1" parent="1">
          <mxGeometry x="50" y="2250" width="20" height="20" as="geometry" />
        </mxCell>
        <mxCell id="i6Kg3G1_LgCS5JZqoiPE-187" value="1" style="ellipse;whiteSpace=wrap;html=1;aspect=fixed;fillColor=#e51400;fontColor=#ffffff;strokeColor=#B20000;" vertex="1" parent="1">
          <mxGeometry x="120" y="2160" width="40" height="40" as="geometry" />
        </mxCell>
        <mxCell id="i6Kg3G1_LgCS5JZqoiPE-189" value="2" style="ellipse;whiteSpace=wrap;html=1;aspect=fixed;fillColor=#e51400;fontColor=#ffffff;strokeColor=#B20000;" vertex="1" parent="1">
          <mxGeometry x="200" y="2160" width="40" height="40" as="geometry" />
        </mxCell>
        <mxCell id="i6Kg3G1_LgCS5JZqoiPE-191" value="4" style="ellipse;whiteSpace=wrap;html=1;aspect=fixed;fillColor=#e51400;fontColor=#ffffff;strokeColor=#B20000;" vertex="1" parent="1">
          <mxGeometry x="280" y="2160" width="40" height="40" as="geometry" />
        </mxCell>
        <mxCell id="i6Kg3G1_LgCS5JZqoiPE-233" value="" style="edgeStyle=orthogonalEdgeStyle;rounded=0;orthogonalLoop=1;jettySize=auto;html=1;" edge="1" parent="1" source="i6Kg3G1_LgCS5JZqoiPE-192" target="i6Kg3G1_LgCS5JZqoiPE-232">
          <mxGeometry relative="1" as="geometry" />
        </mxCell>
        <mxCell id="i6Kg3G1_LgCS5JZqoiPE-192" value="6" style="ellipse;whiteSpace=wrap;html=1;aspect=fixed;fillColor=#e51400;fontColor=#ffffff;strokeColor=#B20000;" vertex="1" parent="1">
          <mxGeometry x="360" y="2160" width="40" height="40" as="geometry" />
        </mxCell>
        <mxCell id="i6Kg3G1_LgCS5JZqoiPE-193" value="" style="endArrow=classic;html=1;rounded=0;exitX=1;exitY=0.5;exitDx=0;exitDy=0;entryX=0;entryY=1;entryDx=0;entryDy=0;fontColor=#00FF00;fillColor=#1ba1e2;strokeColor=#006EAF;" edge="1" parent="1" source="i6Kg3G1_LgCS5JZqoiPE-185" target="i6Kg3G1_LgCS5JZqoiPE-187">
          <mxGeometry x="-0.0207" y="-3" width="50" height="50" relative="1" as="geometry">
            <mxPoint x="260" y="2300" as="sourcePoint" />
            <mxPoint x="310" y="2250" as="targetPoint" />
            <mxPoint as="offset" />
          </mxGeometry>
        </mxCell>
        <mxCell id="i6Kg3G1_LgCS5JZqoiPE-195" value="" style="endArrow=classic;html=1;rounded=0;exitX=0.5;exitY=1;exitDx=0;exitDy=0;entryX=0.5;entryY=0;entryDx=0;entryDy=0;fontColor=#00FF00;fillColor=#1ba1e2;strokeColor=#006EAF;" edge="1" parent="1" source="i6Kg3G1_LgCS5JZqoiPE-187" target="i6Kg3G1_LgCS5JZqoiPE-181">
          <mxGeometry x="-0.0207" y="-3" width="50" height="50" relative="1" as="geometry">
            <mxPoint x="80" y="2270" as="sourcePoint" />
            <mxPoint x="136" y="2204" as="targetPoint" />
            <mxPoint as="offset" />
          </mxGeometry>
        </mxCell>
        <mxCell id="i6Kg3G1_LgCS5JZqoiPE-196" value="" style="endArrow=classic;html=1;rounded=0;exitX=1;exitY=0;exitDx=0;exitDy=0;entryX=0;entryY=1;entryDx=0;entryDy=0;fontColor=#00FF00;fillColor=#1ba1e2;strokeColor=#006EAF;" edge="1" parent="1" source="i6Kg3G1_LgCS5JZqoiPE-181" target="i6Kg3G1_LgCS5JZqoiPE-189">
          <mxGeometry x="-0.0207" y="-3" width="50" height="50" relative="1" as="geometry">
            <mxPoint x="150" y="2210" as="sourcePoint" />
            <mxPoint x="150" y="2330" as="targetPoint" />
            <mxPoint as="offset" />
          </mxGeometry>
        </mxCell>
        <mxCell id="i6Kg3G1_LgCS5JZqoiPE-197" value="Curr" style="text;html=1;strokeColor=none;fillColor=none;align=center;verticalAlign=middle;whiteSpace=wrap;rounded=0;fontColor=#00FF00;" vertex="1" parent="1">
          <mxGeometry x="270" y="2360" width="60" height="30" as="geometry" />
        </mxCell>
        <mxCell id="i6Kg3G1_LgCS5JZqoiPE-198" value="" style="endArrow=classic;html=1;rounded=0;exitX=0.5;exitY=1;exitDx=0;exitDy=0;fontColor=#00FF00;fillColor=#1ba1e2;strokeColor=#006EAF;" edge="1" parent="1" source="i6Kg3G1_LgCS5JZqoiPE-189" target="i6Kg3G1_LgCS5JZqoiPE-183">
          <mxGeometry x="-0.0207" y="-3" width="50" height="50" relative="1" as="geometry">
            <mxPoint x="164" y="2336" as="sourcePoint" />
            <mxPoint x="216" y="2204" as="targetPoint" />
            <mxPoint as="offset" />
          </mxGeometry>
        </mxCell>
        <mxCell id="i6Kg3G1_LgCS5JZqoiPE-199" value="L2" style="text;html=1;strokeColor=none;fillColor=none;align=center;verticalAlign=middle;whiteSpace=wrap;rounded=0;fontColor=#00FF00;" vertex="1" parent="1">
          <mxGeometry x="360" y="2360" width="60" height="30" as="geometry" />
        </mxCell>
        <mxCell id="i6Kg3G1_LgCS5JZqoiPE-200" value="" style="endArrow=classic;html=1;rounded=0;exitX=1;exitY=0;exitDx=0;exitDy=0;fontColor=#00FF00;fillColor=#1ba1e2;strokeColor=#006EAF;entryX=0;entryY=1;entryDx=0;entryDy=0;" edge="1" parent="1" source="i6Kg3G1_LgCS5JZqoiPE-183" target="i6Kg3G1_LgCS5JZqoiPE-191">
          <mxGeometry x="-0.0207" y="-3" width="50" height="50" relative="1" as="geometry">
            <mxPoint x="230" y="2210" as="sourcePoint" />
            <mxPoint x="230" y="2330" as="targetPoint" />
            <mxPoint as="offset" />
          </mxGeometry>
        </mxCell>
        <mxCell id="i6Kg3G1_LgCS5JZqoiPE-202" value="" style="endArrow=classic;html=1;rounded=0;fontColor=#00FF00;fillColor=#1ba1e2;strokeColor=#006EAF;entryX=0.5;entryY=0;entryDx=0;entryDy=0;exitX=0.5;exitY=1;exitDx=0;exitDy=0;" edge="1" parent="1" source="i6Kg3G1_LgCS5JZqoiPE-191" target="i6Kg3G1_LgCS5JZqoiPE-184">
          <mxGeometry x="-0.0207" y="-3" width="50" height="50" relative="1" as="geometry">
            <mxPoint x="340" y="2230" as="sourcePoint" />
            <mxPoint x="296" y="2204" as="targetPoint" />
            <mxPoint as="offset" />
          </mxGeometry>
        </mxCell>
        <mxCell id="i6Kg3G1_LgCS5JZqoiPE-204" value="None" style="text;html=1;strokeColor=none;fillColor=none;align=center;verticalAlign=middle;whiteSpace=wrap;rounded=0;" vertex="1" parent="1">
          <mxGeometry x="360" y="2325" width="60" height="30" as="geometry" />
        </mxCell>
        <mxCell id="i6Kg3G1_LgCS5JZqoiPE-208" value="L2 is None" style="text;html=1;align=center;verticalAlign=middle;whiteSpace=wrap;rounded=0;fontColor=#00FF00;" vertex="1" parent="1">
          <mxGeometry x="405" y="2250" width="90" height="30" as="geometry" />
        </mxCell>
        <mxCell id="i6Kg3G1_LgCS5JZqoiPE-210" value="7" style="ellipse;whiteSpace=wrap;html=1;aspect=fixed;fillColor=#e51400;fontColor=#ffffff;strokeColor=#B20000;" vertex="1" parent="1">
          <mxGeometry x="440" y="120" width="40" height="40" as="geometry" />
        </mxCell>
        <mxCell id="i6Kg3G1_LgCS5JZqoiPE-220" value="7" style="ellipse;whiteSpace=wrap;html=1;aspect=fixed;fillColor=#e51400;fontColor=#ffffff;strokeColor=#B20000;" vertex="1" parent="1">
          <mxGeometry x="440" y="480" width="40" height="40" as="geometry" />
        </mxCell>
        <mxCell id="i6Kg3G1_LgCS5JZqoiPE-222" value="7" style="ellipse;whiteSpace=wrap;html=1;aspect=fixed;fillColor=#e51400;fontColor=#ffffff;strokeColor=#B20000;" vertex="1" parent="1">
          <mxGeometry x="440" y="760" width="40" height="40" as="geometry" />
        </mxCell>
        <mxCell id="i6Kg3G1_LgCS5JZqoiPE-224" value="7" style="ellipse;whiteSpace=wrap;html=1;aspect=fixed;fillColor=#e51400;fontColor=#ffffff;strokeColor=#B20000;" vertex="1" parent="1">
          <mxGeometry x="440" y="1040" width="40" height="40" as="geometry" />
        </mxCell>
        <mxCell id="i6Kg3G1_LgCS5JZqoiPE-226" value="7" style="ellipse;whiteSpace=wrap;html=1;aspect=fixed;fillColor=#e51400;fontColor=#ffffff;strokeColor=#B20000;" vertex="1" parent="1">
          <mxGeometry x="447.5" y="1320" width="40" height="40" as="geometry" />
        </mxCell>
        <mxCell id="i6Kg3G1_LgCS5JZqoiPE-228" value="7" style="ellipse;whiteSpace=wrap;html=1;aspect=fixed;fillColor=#e51400;fontColor=#ffffff;strokeColor=#B20000;" vertex="1" parent="1">
          <mxGeometry x="440" y="1600" width="40" height="40" as="geometry" />
        </mxCell>
        <mxCell id="i6Kg3G1_LgCS5JZqoiPE-230" value="7" style="ellipse;whiteSpace=wrap;html=1;aspect=fixed;fillColor=#e51400;fontColor=#ffffff;strokeColor=#B20000;" vertex="1" parent="1">
          <mxGeometry x="440" y="1880" width="40" height="40" as="geometry" />
        </mxCell>
        <mxCell id="i6Kg3G1_LgCS5JZqoiPE-232" value="7" style="ellipse;whiteSpace=wrap;html=1;aspect=fixed;fillColor=#e51400;fontColor=#ffffff;strokeColor=#B20000;" vertex="1" parent="1">
          <mxGeometry x="440" y="2160" width="40" height="40" as="geometry" />
        </mxCell>
        <mxCell id="i6Kg3G1_LgCS5JZqoiPE-234" value="" style="endArrow=classic;html=1;rounded=0;fontColor=#00FF00;fillColor=#1ba1e2;strokeColor=#006EAF;entryX=0.5;entryY=1;entryDx=0;entryDy=0;exitX=1;exitY=0;exitDx=0;exitDy=0;" edge="1" parent="1" source="i6Kg3G1_LgCS5JZqoiPE-184" target="i6Kg3G1_LgCS5JZqoiPE-192">
          <mxGeometry x="-0.0207" y="-3" width="50" height="50" relative="1" as="geometry">
            <mxPoint x="360" y="2260" as="sourcePoint" />
            <mxPoint x="310" y="2330" as="targetPoint" />
            <mxPoint as="offset" />
          </mxGeometry>
        </mxCell>
      </root>
    </mxGraphModel>
  </diagram>
</mxfile>
